<?xml version="1.0" standalone="no"?>
<!DOCTYPE svg PUBLIC "-//W3C//DTD SVG 20010904//EN"
 "http://www.w3.org/TR/2001/REC-SVG-20010904/DTD/svg10.dtd">
<svg version="1.0" xmlns="http://www.w3.org/2000/svg"
 width="884.000000pt" height="884.000000pt" viewBox="0 0 884.000000 884.000000"
 preserveAspectRatio="xMidYMid meet">
<metadata>
Created by potrace 1.14, written by Peter Selinger 2001-2017
</metadata>
<g transform="translate(0.000000,884.000000) scale(0.100000,-0.100000)"
fill="#000000" stroke="none">
<path d="M8208 8603 c-37 -41 -46 -78 -44 -186 3 -99 -9 -130 -13 -35 -2 59
-24 145 -44 168 -6 9 -26 22 -43 29 -46 18 -95 -4 -119 -55 -17 -34 -19 -60
-17 -201 2 -106 -1 -164 -8 -168 -6 -4 -34 17 -64 45 -59 59 -97 79 -141 73
-39 -5 -64 -31 -71 -74 -9 -53 12 -112 69 -197 l53 -77 -36 -84 c-40 -95 -43
-97 -155 -105 -122 -9 -161 -9 -174 -2 -7 5 -17 2 -24 -7 -7 -8 -32 -32 -56
-53 -31 -27 -41 -32 -33 -17 7 12 12 30 12 40 0 11 32 45 75 81 41 34 75 67
75 72 0 24 -22 15 -67 -28 -101 -94 -140 -127 -166 -141 -38 -20 -107 -89
-107 -107 0 -17 5 -17 31 -3 14 7 24 7 33 0 10 -8 23 -5 50 14 22 15 36 20 37
12 1 -7 2 -18 3 -26 0 -8 9 -15 19 -17 26 -4 58 -46 45 -61 -6 -7 -7 -20 -4
-29 6 -15 8 -15 31 0 l25 16 -19 -42 c-11 -24 -25 -65 -32 -92 -9 -34 -23 -58
-52 -85 -22 -20 -65 -59 -95 -87 -52 -48 -57 -51 -91 -43 -20 4 -79 10 -131
13 -97 6 -131 10 -187 25 -17 5 -49 7 -70 4 -51 -6 -151 -54 -191 -91 -20 -18
-21 -13 -12 38 4 25 11 65 14 89 4 28 13 49 26 58 11 8 27 27 35 43 26 51 75
194 78 230 4 47 -10 111 -31 133 -15 17 -14 19 9 40 14 12 41 46 59 75 17 28
37 52 44 52 6 0 17 9 24 20 21 34 -12 25 -45 -13 -15 -18 -44 -43 -63 -57 -19
-13 -39 -29 -43 -35 -5 -5 -5 1 -2 15 4 14 23 42 43 63 35 36 36 38 15 43 -19
5 -21 10 -12 25 5 10 8 19 5 19 -2 0 2 23 9 51 17 65 13 165 -10 213 -23 49
-78 104 -120 122 -38 16 -76 50 -101 92 -9 16 -40 43 -69 59 -64 37 -221 92
-310 109 -11 2 -31 6 -45 9 -72 16 -172 20 -219 11 -56 -12 -146 -74 -237
-163 -35 -35 -61 -107 -66 -182 -2 -35 -7 -45 -25 -52 -40 -15 -83 -70 -99
-124 -13 -46 -16 -69 -16 -127 0 -36 3 -93 8 -125 4 -32 9 -65 10 -73 1 -8 5
-35 9 -60 14 -82 13 -84 -17 -97 -55 -23 -61 -117 -13 -197 13 -22 34 -61 45
-86 12 -25 25 -53 31 -62 16 -30 -5 -19 -30 15 -52 71 -105 87 -216 66 -97
-18 -110 -21 -135 -24 -38 -5 -88 -15 -165 -30 -38 -8 -113 -17 -166 -20 -53
-2 -110 -10 -125 -16 -35 -15 -47 -13 -104 14 -24 11 -62 20 -83 20 -37 -1
-161 47 -362 141 l-80 37 0 42 c0 30 -6 48 -22 65 -13 12 -23 30 -23 40 0 10
-7 27 -15 38 -12 16 -16 17 -24 5 -5 -8 -8 -19 -6 -25 2 -6 6 -40 9 -75 5 -61
4 -63 -17 -57 -12 4 -34 9 -48 12 -15 3 -32 17 -38 30 -13 30 -41 32 -41 3 0
-15 -4 -19 -16 -15 -9 3 -23 6 -31 6 -11 0 -13 3 -5 13 14 16 -12 77 -33 77
-18 0 -21 -41 -5 -71 10 -18 8 -19 -57 -14 -37 3 -120 7 -183 11 -114 5 -167
8 -350 19 -52 3 -134 7 -181 9 -102 5 -136 18 -216 88 -63 55 -96 73 -158 82
-48 7 -115 71 -115 110 0 38 -39 75 -86 82 -34 5 -45 2 -71 -20 -17 -14 -36
-39 -42 -54 l-12 -29 -67 19 c-87 24 -138 17 -174 -23 -37 -39 -38 -87 -1
-123 29 -29 75 -52 198 -97 102 -39 135 -65 171 -135 31 -62 82 -121 129 -150
16 -11 40 -28 53 -38 12 -11 30 -21 40 -22 17 -3 148 -41 260 -75 34 -11 92
-33 127 -49 36 -17 67 -30 70 -30 2 0 32 -13 67 -29 35 -16 126 -57 203 -91
159 -71 205 -91 291 -130 71 -33 119 -46 194 -55 30 -3 66 -8 80 -10 14 -3 41
-7 60 -9 19 -3 80 -19 135 -36 55 -17 135 -42 178 -54 42 -13 79 -25 81 -27 1
-2 13 -29 25 -60 l22 -56 -21 -35 c-19 -33 -19 -68 1 -68 14 0 38 42 32 59 -3
9 6 0 20 -20 25 -36 99 -79 135 -79 10 0 23 -5 29 -11 15 -15 58 -7 58 11 0 9
13 15 40 18 l40 4 -50 -34 c-41 -27 -51 -39 -53 -66 -3 -27 1 -35 18 -39 12
-3 19 -11 16 -19 -3 -7 0 -15 7 -17 9 -3 9 -7 0 -19 -12 -14 -8 -28 8 -28 4 0
13 16 19 35 12 38 24 44 34 19 8 -22 29 -4 47 38 l13 32 11 -28 c11 -25 13
-26 28 -12 8 9 18 16 22 16 6 0 0 -123 -11 -214 -9 -77 -41 -166 -84 -233 -37
-59 -42 -63 -77 -63 -119 0 -191 -69 -151 -143 12 -23 42 -52 68 -67 13 -8 13
-13 -3 -42 -10 -18 -36 -45 -57 -60 -61 -42 -90 -94 -99 -176 -5 -48 -13 -78
-27 -92 -10 -12 -32 -49 -49 -83 -26 -53 -35 -63 -65 -70 -19 -5 -49 -19 -66
-32 -24 -18 -48 -25 -110 -30 -186 -14 -229 -28 -291 -99 -39 -44 -94 -147
-106 -197 -4 -14 -15 -36 -27 -50 -11 -13 -23 -28 -28 -34 -13 -16 -66 -108
-84 -145 -15 -32 -47 -140 -64 -215 -10 -48 -13 -394 -3 -460 26 -178 77 -287
213 -449 l39 -46 -32 -51 c-17 -28 -31 -55 -31 -61 0 -10 -57 -8 -167 7 -87
12 -332 56 -363 65 -19 6 -46 13 -60 15 -14 2 -43 8 -65 14 -22 5 -89 22 -149
36 -61 14 -114 29 -119 32 -4 3 -23 7 -40 10 -18 3 -38 10 -46 16 -7 6 -27 10
-43 8 -24 -2 -29 1 -26 16 3 15 -3 18 -39 16 -36 -1 -45 2 -63 27 -18 25 -24
27 -49 20 -101 -29 -96 -77 6 -59 28 5 36 -2 17 -15 -30 -23 -7 -37 41 -26 37
8 66 3 38 -7 -31 -11 -9 -23 41 -23 45 0 54 -3 52 -17 -1 -14 6 -17 32 -15 22
3 34 -1 38 -12 3 -9 17 -16 29 -16 13 0 27 -4 30 -10 3 -5 19 -10 35 -10 15 0
30 -4 32 -9 2 -6 16 -12 31 -15 16 -3 44 -14 64 -26 19 -11 39 -17 45 -14 5 4
20 2 31 -4 29 -15 171 -66 227 -82 25 -8 50 -18 57 -23 7 -5 18 -7 25 -4 7 2
26 -5 41 -15 18 -13 36 -18 51 -14 16 4 26 1 29 -9 4 -9 28 -16 66 -21 l60 -6
-26 -42 c-135 -217 -268 -407 -288 -412 -12 -3 -36 -20 -53 -37 -36 -37 -142
-238 -149 -282 -3 -16 -12 -38 -20 -47 -30 -34 -13 -145 26 -170 16 -9 17 -16
9 -37 -21 -56 49 -181 100 -181 30 0 36 -14 47 -105 3 -22 7 -56 10 -75 2 -19
7 -57 10 -85 4 -27 9 -58 11 -67 6 -22 18 -20 -141 -23 -125 -2 -305 -12 -364
-20 -16 -2 -42 4 -57 13 -21 11 -50 15 -109 13 -181 -7 -274 -4 -351 13 -12 2
-45 7 -75 11 -30 4 -61 10 -69 15 -8 4 -20 6 -26 3 -18 -6 -31 18 -39 71 -5
40 -4 48 8 43 7 -3 20 -1 27 3 11 7 11 11 1 24 -7 8 -21 18 -31 21 -12 4 -21
23 -29 64 -12 61 -48 124 -85 151 -31 22 -98 49 -125 49 -14 1 -33 9 -43 18
-51 46 -195 3 -200 -59 -2 -23 -4 -24 -28 -11 -71 37 -181 -15 -196 -93 -5
-29 -13 -35 -82 -64 -210 -88 -260 -102 -300 -89 -19 6 -55 9 -80 6 -37 -4
-53 -12 -77 -40 -37 -43 -66 -59 -86 -46 -23 15 -102 7 -132 -14 -16 -11 -37
-39 -47 -62 -21 -50 -33 -59 -78 -61 -60 -2 -112 -39 -136 -95 -8 -20 -22 -42
-31 -49 -48 -40 -75 -142 -51 -192 43 -91 177 -107 446 -53 14 3 43 7 65 10
22 2 51 7 65 10 77 16 139 16 171 -1 33 -16 98 -62 109 -75 3 -4 25 -16 49
-29 33 -16 53 -20 80 -15 20 3 52 7 71 7 54 0 163 -33 181 -56 16 -20 17 -20
48 7 43 35 66 40 126 27 28 -7 64 -14 80 -17 17 -2 55 -11 85 -18 30 -7 69
-16 85 -18 157 -26 307 -67 375 -104 57 -31 84 -40 111 -38 27 3 42 -1 55 -16
9 -10 26 -19 36 -19 17 0 18 2 3 30 -9 16 -14 30 -13 30 2 0 48 -16 103 -36
290 -103 685 -234 706 -234 5 0 58 -23 117 -51 353 -168 599 -184 812 -51 30
19 70 51 88 71 33 37 114 162 170 263 47 85 209 410 216 435 4 13 18 24 37 28
17 4 44 20 60 36 17 16 34 27 39 24 5 -3 11 -1 15 5 3 5 -1 10 -9 10 -9 0 -16
2 -16 5 0 16 86 231 94 237 16 11 20 -10 6 -27 -10 -12 -9 -16 6 -21 11 -3 27
-10 37 -15 13 -7 19 -5 23 6 4 8 16 15 28 15 19 -1 19 -2 4 -11 -25 -14 -22
-26 7 -31 20 -4 26 0 35 26 13 39 47 64 56 41 5 -13 9 -13 21 -3 9 7 19 21 23
33 8 18 9 18 9 -5 1 -14 -3 -41 -9 -59 -13 -45 -8 -48 24 -15 27 30 38 27 43
-9 8 -53 23 -60 31 -14 2 12 5 29 7 37 2 8 4 18 4 21 1 4 8 6 17 5 9 0 18 7
19 17 2 9 -1 15 -6 12 -4 -3 -11 7 -15 22 -3 15 -8 36 -11 46 -4 15 0 17 21
11 16 -4 26 -2 26 5 0 14 37 51 51 51 8 0 8 4 0 14 -17 21 23 43 45 25 11 -9
14 -8 14 7 0 16 2 16 9 4 6 -8 7 -18 5 -22 -3 -4 0 -8 5 -8 6 0 11 6 11 14 0
33 22 24 82 -34 35 -33 66 -60 71 -60 4 0 7 -7 7 -15 0 -8 -9 -15 -21 -15 -12
0 -17 -4 -14 -11 11 -16 -4 -59 -20 -59 -17 0 -20 -16 -5 -25 6 -3 10 -13 10
-22 0 -8 10 -29 22 -45 20 -29 22 -30 35 -12 7 10 13 28 13 41 0 13 4 23 9 23
6 0 9 -18 8 -40 -2 -43 13 -55 28 -21 6 13 16 19 25 15 29 -11 35 -9 33 10 -2
23 25 46 44 39 7 -3 21 1 30 8 13 11 17 11 20 2 3 -8 21 -13 42 -13 25 0 44
-7 56 -20 14 -16 21 -18 32 -8 17 14 81 12 99 -3 16 -13 -5 -72 -21 -60 -25
20 -81 1 -71 -25 3 -7 -13 -16 -42 -24 -26 -7 -55 -20 -64 -28 -34 -29 -15
-122 41 -200 15 -21 18 -38 14 -74 -7 -58 18 -108 43 -87 11 9 13 26 9 68 -11
108 -12 147 -4 169 12 33 29 27 22 -8 -4 -24 -3 -29 9 -25 17 7 54 93 63 145
3 19 8 36 10 38 9 9 35 -74 35 -112 0 -50 12 -71 35 -62 14 5 16 13 10 39 -9
40 -13 118 -7 135 7 20 22 14 33 -15 l10 -28 20 25 c11 14 25 37 31 52 8 23
13 26 29 18 15 -8 19 -7 19 5 0 13 -12 19 -32 16 -5 0 -8 10 -8 24 0 29 30 48
80 49 19 1 50 12 68 24 17 13 32 20 32 17 0 -4 15 2 34 13 25 15 37 17 45 9
16 -16 80 -19 113 -6 19 8 32 8 47 0 16 -9 22 -8 30 8 8 13 18 17 37 13 19 -3
25 -1 20 7 -4 6 -2 11 3 11 14 0 14 -27 1 -35 -17 -11 -11 -37 10 -42 14 -4
17 -9 11 -17 -6 -6 -7 -16 -3 -22 10 -14 59 -34 66 -27 12 12 6 24 -19 35 -24
11 -24 12 -8 30 14 16 15 23 5 38 -16 26 -15 31 3 24 20 -8 35 4 28 21 -3 9
-18 15 -34 15 -25 0 -29 4 -29 26 0 24 -2 25 -38 20 -22 -3 -43 -6 -48 -7 -13
-3 -44 12 -44 21 0 4 11 5 25 2 15 -2 25 0 25 7 0 6 9 11 21 11 12 0 19 5 17
13 -3 6 -10 12 -16 12 -16 0 -28 15 -16 23 17 12 67 81 104 145 30 52 40 60
68 63 38 4 72 20 72 34 0 14 -42 50 -57 50 -14 0 -13 7 8 91 5 19 12 60 15 90
7 60 11 72 24 64 5 -3 11 -1 15 5 3 5 -3 10 -14 10 -17 0 -21 6 -21 33 -1 85
-35 225 -76 315 -59 128 -164 253 -286 335 -267 183 -624 190 -896 20 -42 -26
-57 -31 -72 -23 -14 8 -22 6 -32 -5 -7 -9 -32 -35 -56 -60 -38 -39 -46 -43
-77 -38 -20 3 -38 10 -41 15 -12 19 39 125 68 143 86 50 125 133 127 266 1 50
5 61 37 95 60 65 67 88 61 178 l-7 80 71 107 c68 101 73 107 103 105 49 -5 97
26 178 116 230 252 350 417 579 795 88 145 112 189 198 359 85 170 107 185
142 99 11 -27 13 -40 18 -96 0 -8 7 -23 14 -33 11 -15 17 -16 40 -5 15 7 27
19 28 28 4 88 67 181 124 181 19 0 44 11 66 29 20 17 48 33 63 37 27 6 45 29
33 41 -4 3 -19 -3 -34 -13 -15 -10 -41 -19 -56 -20 -16 -2 -35 -5 -43 -8 -8
-3 -15 -1 -15 4 -5 41 -3 59 9 84 8 16 16 42 19 58 2 16 10 43 17 60 10 22 11
41 3 69 -8 32 -6 48 13 94 21 52 21 56 6 81 -23 34 -38 26 -56 -29 -12 -36
-22 -49 -44 -57 -45 -16 -46 -13 -22 43 21 46 31 80 41 127 21 103 58 211 82
240 61 76 66 79 131 84 103 8 130 46 33 46 l-59 0 26 30 c17 19 36 30 52 30
39 0 119 44 182 100 64 57 91 96 118 172 15 42 19 47 19 26 2 -64 91 -7 91 58
0 12 -6 15 -25 10 -18 -5 -24 -3 -23 6 2 8 -5 12 -20 10 l-22 -3 17 44 c11 26
53 82 103 136 47 51 89 99 93 107 4 7 29 28 55 46 51 35 78 62 87 87 3 9 23
30 44 46 53 42 76 74 62 88 -7 7 -22 -2 -51 -34 -22 -24 -40 -41 -40 -38 0 4
31 71 69 150 38 79 88 194 112 254 36 93 51 118 94 161 72 72 146 233 181 393
9 42 25 108 35 146 39 140 36 233 -7 285 -31 36 -88 42 -120 12 -20 -19 -20
-18 -37 38 -12 42 -23 59 -42 68 -43 20 -79 15 -107 -15z m-2708 -1454 c0 -14
-25 0 -38 22 -12 19 -12 20 13 3 14 -9 25 -20 25 -25z m-600 -5589 c0 -5 -4
-10 -10 -10 -5 0 -10 5 -10 10 0 6 5 10 10 10 6 0 10 -4 10 -10z m-15 -40 c3
-5 1 -10 -4 -10 -6 0 -11 5 -11 10 0 6 2 10 4 10 3 0 8 -4 11 -10z m-20 -31
c11 -17 -1 -21 -15 -4 -8 9 -8 15 -2 15 6 0 14 -5 17 -11z m84 -35 c-14 -18
-24 -11 -15 11 3 9 11 13 16 10 8 -5 7 -11 -1 -21z m-63 -10 c-4 -9 -9 -15
-11 -12 -3 3 -3 13 1 22 4 9 9 15 11 12 3 -3 3 -13 -1 -22z m634 -3 c0 -16
-25 -30 -39 -22 -11 7 -9 11 5 20 23 13 34 14 34 2z"/>
<path d="M4630 8267 c0 -23 28 -77 40 -77 18 0 10 35 -15 65 -19 24 -24 26
-25 12z"/>
<path d="M4927 8103 c-3 -5 -2 -15 2 -22 5 -7 11 -9 14 -4 3 5 2 15 -2 22 -5
7 -11 9 -14 4z"/>
<path d="M4940 8026 c0 -27 16 -44 23 -24 5 18 -3 48 -14 48 -5 0 -9 -11 -9
-24z"/>
<path d="M5299 7998 c-18 -74 -14 -118 11 -118 25 0 29 19 15 78 -6 27 -23 52
-26 40z"/>
<path d="M5069 7969 c-21 -38 -22 -61 -2 -57 21 4 39 56 25 70 -7 7 -14 3 -23
-13z"/>
<path d="M4512 7942 c-13 -4 -16 -49 -6 -76 7 -19 33 -21 39 -3 8 20 -19 84
-33 79z"/>
<path d="M4576 7895 c-10 -27 -7 -58 8 -74 8 -9 16 -30 19 -46 2 -18 10 -31
20 -33 10 -2 17 0 18 5 0 4 2 16 4 26 2 10 -3 30 -10 45 -7 15 -17 40 -22 56
-9 34 -28 44 -37 21z"/>
<path d="M4827 7833 c-10 -9 -8 -55 2 -72 14 -22 41 -5 41 27 0 37 -25 64 -43
45z"/>
<path d="M5223 7828 c-5 -7 -8 -19 -7 -25 1 -7 2 -22 3 -33 0 -11 8 -20 16
-20 23 0 34 30 23 62 -11 31 -20 35 -35 16z"/>
<path d="M6958 7803 c-20 -21 -54 -53 -75 -71 -24 -21 -33 -35 -25 -39 15 -6
6 -23 -14 -23 -20 0 -91 -48 -98 -67 -10 -26 4 -34 34 -18 19 10 30 11 32 4 6
-17 74 20 89 47 13 24 29 32 29 14 0 -5 9 -10 19 -10 11 0 23 5 26 10 9 15 25
12 25 -5 0 -9 10 -15 26 -15 23 0 25 -3 20 -24 -8 -32 4 -38 37 -21 38 19 76
65 84 98 3 16 15 33 27 37 25 11 56 35 56 44 0 19 -76 -11 -91 -36 -5 -8 -12
-9 -18 -3 -13 13 -3 29 33 47 22 12 25 16 13 21 -9 3 -26 -2 -39 -12 -28 -23
-129 -77 -108 -59 25 21 72 99 65 106 -7 7 -65 -56 -65 -69 0 -4 -20 -14 -44
-22 -24 -8 -54 -25 -66 -37 -12 -12 -24 -19 -27 -16 -8 7 39 75 77 111 29 28
38 45 22 45 -4 0 -24 -17 -44 -37z"/>
<path d="M6786 7789 c-22 -22 -57 -52 -78 -65 -43 -27 -59 -58 -48 -89 19 -49
110 26 115 95 0 11 41 55 60 66 22 12 23 27 3 32 -7 1 -31 -16 -52 -39z"/>
<path d="M4678 7773 c-3 -34 3 -57 14 -64 18 -11 28 -1 28 30 0 41 -38 72 -42
34z"/>
<path d="M4803 7731 c-3 -11 -14 -21 -25 -24 -15 -4 -19 -12 -16 -38 4 -42 16
-45 54 -11 28 24 31 30 23 60 -11 36 -28 42 -36 13z"/>
<path d="M5062 7738 c-16 -16 -15 -65 1 -71 24 -9 38 8 33 38 -7 36 -19 48
-34 33z"/>
<path d="M4247 7693 c-12 -11 -8 -48 7 -69 13 -17 16 -17 30 -4 13 13 13 19 1
48 -14 31 -25 39 -38 25z"/>
<path d="M3454 7635 c-11 -27 8 -70 31 -70 30 0 30 37 1 64 -23 22 -26 23 -32
6z"/>
<path d="M3517 7643 c-4 -3 -7 -11 -7 -17 0 -6 5 -5 12 2 6 6 9 14 7 17 -3 3
-9 2 -12 -2z"/>
<path d="M4918 7620 c-3 -17 1 -38 8 -48 12 -16 14 -16 31 1 16 16 16 20 3 44
-21 38 -37 39 -42 3z"/>
<path d="M4622 7548 c4 -43 33 -46 33 -3 0 21 -5 31 -18 33 -15 3 -18 -2 -15
-30z"/>
<path d="M4440 7454 c0 -8 5 -12 10 -9 6 3 10 10 10 16 0 5 -4 9 -10 9 -5 0
-10 -7 -10 -16z"/>
<path d="M6734 7312 c-15 -10 -34 -47 -34 -67 0 -27 43 -14 50 15 9 31 -1 62
-16 52z"/>
<path d="M2243 7185 c-24 -17 -38 -64 -28 -95 10 -32 63 -27 77 8 15 37 12 62
-9 84 -17 16 -21 17 -40 3z"/>
<path d="M8135 7050 c-10 -12 -35 -30 -54 -42 -20 -12 -49 -34 -66 -49 -16
-15 -54 -35 -83 -44 -73 -24 -110 -81 -45 -69 15 3 30 7 34 9 4 3 12 -2 19
-10 9 -10 17 -12 30 -5 13 7 19 6 23 -4 4 -9 14 -12 29 -9 22 6 22 5 -4 -20
-43 -40 -37 -63 15 -57 15 1 18 -3 12 -22 -7 -22 -14 -30 -48 -53 -24 -16 -30
-52 -11 -59 10 -4 25 4 42 24 15 16 34 30 43 30 8 0 28 14 42 30 35 39 67 41
63 3 -2 -19 -11 -30 -32 -37 -28 -11 -104 -81 -104 -97 0 -23 26 -19 49 8 31
37 67 57 76 43 3 -5 -2 -10 -13 -10 -41 0 -71 -70 -36 -84 27 -10 34 -7 73 33
20 21 44 41 52 44 11 5 10 9 -6 22 -11 8 -25 13 -32 11 -24 -10 -13 13 15 30
38 24 83 74 76 86 -4 6 -10 6 -17 -1 -6 -6 -14 -11 -18 -11 -11 0 2 43 18 61
7 9 11 24 7 33 -6 15 -9 15 -32 -6 -25 -23 -22 -8 6 24 13 16 13 18 -2 24 -21
8 -66 -32 -66 -58 0 -10 -6 -18 -13 -18 -7 0 -23 -9 -36 -21 -28 -26 -41 -17
-15 12 10 11 19 31 20 45 0 14 14 38 29 54 35 37 28 48 -14 22 -31 -19 -75
-19 -87 0 -8 13 40 83 76 109 31 24 40 49 17 49 -8 0 -22 -9 -32 -20z"/>
<path d="M2170 7042 c0 -10 6 -27 14 -38 11 -15 17 -16 27 -7 15 15 6 39 -20
53 -18 9 -21 8 -21 -8z"/>
<path d="M2257 7038 c-7 -21 12 -48 33 -48 13 0 20 7 20 18 0 34 -43 57 -53
30z"/>
<path d="M2080 6932 c0 -21 18 -42 37 -42 19 0 16 47 -3 54 -26 10 -34 7 -34
-12z"/>
<path d="M8356 6901 c-16 -11 -33 -27 -38 -35 -15 -27 26 -19 56 10 43 44 33
58 -18 25z"/>
<path d="M1780 6879 c0 -5 5 -7 10 -4 6 3 10 8 10 11 0 2 -4 4 -10 4 -5 0 -10
-5 -10 -11z"/>
<path d="M1936 6754 c-40 -39 14 -111 64 -84 22 12 17 45 -13 78 -24 26 -31
27 -51 6z"/>
<path d="M1754 6685 c-4 -9 1 -24 12 -36 16 -18 19 -18 33 -4 12 12 13 19 5
33 -15 23 -43 27 -50 7z"/>
<path d="M7898 6682 c-15 -9 -28 -25 -30 -37 -2 -16 -9 -19 -34 -17 -18 2 -36
-3 -43 -12 -15 -18 -11 -51 6 -51 6 0 15 -3 19 -7 4 -5 13 -8 20 -8 14 0 55
41 55 55 0 6 9 20 20 32 12 11 19 30 17 42 -3 19 -4 19 -30 3z"/>
<path d="M1866 6624 c-7 -19 3 -95 16 -111 12 -15 38 -5 38 15 0 9 6 31 12 50
11 30 11 35 -7 48 -25 19 -51 18 -59 -2z"/>
<path d="M7887 6527 c-43 -39 -54 -56 -46 -64 16 -16 34 -7 90 47 88 84 48
100 -44 17z"/>
<path d="M8022 6494 c-30 -20 -28 -44 2 -44 22 0 56 32 56 52 0 13 -34 9 -58
-8z"/>
<path d="M8020 6395 c-17 -21 -8 -28 15 -11 11 8 14 15 8 19 -6 4 -16 0 -23
-8z"/>
<path d="M4410 6309 c0 -5 5 -7 10 -4 6 3 10 8 10 11 0 2 -4 4 -10 4 -5 0 -10
-5 -10 -11z"/>
<path d="M3936 6284 c-4 -9 -4 -19 -1 -22 3 -3 11 0 17 6 9 9 9 15 1 23 -7 7
-12 5 -17 -7z"/>
<path d="M4321 6224 c-14 -32 -3 -54 16 -29 14 21 18 55 5 55 -5 0 -14 -12
-21 -26z"/>
<path d="M4190 6180 c-22 -54 11 -82 36 -31 14 26 7 61 -11 61 -7 0 -18 -13
-25 -30z"/>
<path d="M4062 6188 c-14 -14 -16 -44 -2 -53 12 -7 44 41 35 55 -8 13 -18 13
-33 -2z"/>
<path d="M4123 6108 c-10 -13 -26 -53 -28 -73 -2 -16 15 -45 25 -45 18 0 50
64 48 95 -3 32 -28 45 -45 23z"/>
<path d="M4334 6097 c-4 -10 -2 -23 3 -28 14 -14 24 13 13 32 -7 11 -10 10
-16 -4z"/>
<path d="M3865 6070 c3 -5 8 -10 11 -10 2 0 4 5 4 10 0 6 -5 10 -11 10 -5 0
-7 -4 -4 -10z"/>
<path d="M4083 5865 c-11 -8 -23 -24 -26 -35 -10 -38 66 -68 92 -36 10 12 8
19 -7 34 -11 11 -24 27 -29 36 -8 14 -11 14 -30 1z"/>
<path d="M4535 5870 c-3 -5 -1 -10 4 -10 6 0 11 5 11 10 0 6 -2 10 -4 10 -3 0
-8 -4 -11 -10z"/>
<path d="M3983 5673 c-41 -14 -93 -62 -93 -86 0 -7 5 -19 10 -27 8 -13 14 -13
51 0 33 12 48 25 68 62 32 58 23 71 -36 51z"/>
<path d="M4230 5640 c0 -5 5 -10 10 -10 6 0 10 5 10 10 0 6 -4 10 -10 10 -5 0
-10 -4 -10 -10z"/>
<path d="M4423 5571 c-26 -20 -46 -58 -38 -71 9 -15 44 -12 61 4 8 8 17 28 20
44 7 36 -13 47 -43 23z"/>
<path d="M4095 5530 c3 -5 8 -10 11 -10 2 0 4 5 4 10 0 6 -5 10 -11 10 -5 0
-7 -4 -4 -10z"/>
<path d="M4254 5482 c-72 -58 -61 -144 14 -113 41 17 72 91 49 119 -13 17 -38
15 -63 -6z"/>
<path d="M3975 5416 c-41 -30 -19 -79 26 -55 15 7 18 16 13 32 -10 33 -18 38
-39 23z"/>
<path d="M7215 5208 c-55 -19 -85 -58 -45 -58 24 0 70 21 70 32 0 4 6 8 14 8
7 0 19 7 26 15 10 13 9 15 -11 14 -13 0 -37 -5 -54 -11z"/>
<path d="M6994 5128 c-31 -51 -34 -88 -8 -88 8 0 14 -4 14 -10 0 -5 -4 -10
-10 -10 -5 0 -10 -5 -10 -11 0 -5 4 -8 9 -4 9 5 23 -24 20 -41 -8 -46 26 -74
91 -76 16 -1 30 -5 30 -10 0 -16 39 -8 53 12 l14 21 6 -21 c4 -16 12 -21 33
-18 34 4 64 43 71 95 5 37 9 42 44 53 22 7 39 17 39 22 0 4 4 8 9 8 21 0 -37
-125 -68 -150 -14 -11 -18 -23 -14 -42 8 -40 37 -36 67 9 20 30 26 33 32 20 3
-9 10 -15 14 -12 5 3 11 1 15 -5 4 -6 10 -8 15 -5 4 3 13 -2 20 -10 7 -9 22
-12 40 -9 15 4 31 1 34 -5 4 -6 24 -11 45 -11 39 0 75 24 86 59 3 10 13 22 22
25 17 7 63 -18 63 -34 0 -14 56 -13 83 1 12 6 34 23 49 36 14 14 29 25 32 24
21 -3 25 2 20 28 -3 16 -1 31 4 35 12 7 4 46 -9 46 -5 0 -9 -7 -9 -15 0 -8
-10 -20 -22 -26 -13 -7 -28 -19 -35 -28 -10 -14 -12 -11 -12 19 0 19 6 44 14
54 20 26 19 36 -4 36 -10 0 -26 -11 -35 -25 -13 -19 -22 -24 -40 -19 -17 4
-28 0 -37 -13 -8 -11 -21 -22 -29 -26 -8 -4 -25 -14 -37 -22 -20 -15 -23 -14
-56 14 -19 17 -40 31 -46 31 -25 0 1 20 35 26 20 4 49 18 66 32 17 15 36 27
42 28 32 6 66 25 66 39 0 21 -26 19 -58 -4 -15 -10 -46 -21 -68 -24 -23 -4
-61 -17 -85 -30 -24 -13 -57 -23 -74 -22 -16 1 -42 -5 -57 -12 -33 -16 -38
-16 -38 -2 0 5 5 7 10 4 6 -3 13 0 16 8 3 9 19 21 35 27 16 7 29 16 29 19 0 4
17 15 37 25 26 12 33 20 24 25 -27 17 -134 -30 -150 -66 -10 -22 -15 -24 -56
-17 -46 6 -95 -13 -95 -37 0 -6 -15 -29 -33 -52 -19 -23 -37 -51 -41 -61 -3
-10 -9 -16 -13 -12 -4 3 3 20 15 36 22 30 28 50 15 51 -103 7 -109 9 -130 33
-15 18 -20 34 -17 56 6 36 -20 43 -32 8 -6 -19 -7 -19 -16 -5 -5 10 -6 23 -1
30 11 17 14 47 5 47 -4 0 -21 -24 -38 -52z m512 -109 c2 -4 12 -5 21 -2 11 4
14 2 11 -8 -3 -8 -17 -14 -33 -14 -21 1 -35 -9 -59 -42 -31 -42 -55 -58 -38
-25 5 9 12 34 16 54 4 20 12 38 19 41 20 7 57 5 63 -4z"/>
<path d="M8016 5064 c-26 -27 -33 -52 -18 -69 5 -6 13 -22 20 -37 11 -26 10
-28 -27 -38 -39 -10 -59 -34 -40 -45 15 -10 70 5 76 21 6 15 33 20 33 5 0 -6
75 -7 142 -2 7 1 48 74 48 86 0 10 -28 5 -32 -6 -5 -14 -68 -18 -67 -5 3 25
-2 35 -14 30 -20 -7 -43 24 -29 38 21 21 13 30 -18 23 -23 -5 -30 -3 -30 9 0
23 -14 20 -44 -10z"/>
<path d="M8293 4996 c-47 -32 -63 -76 -27 -76 14 0 77 88 66 93 -4 2 -21 -6
-39 -17z"/>
<path d="M8318 4950 c-37 -37 -44 -75 -12 -63 8 3 14 0 14 -6 0 -13 -32 -31
-55 -31 -15 0 -15 1 -1 16 9 8 16 17 16 20 0 9 -74 -6 -80 -17 -7 -11 -54 -14
-122 -7 -44 4 -85 -20 -75 -46 4 -9 13 -13 22 -10 10 4 15 0 15 -10 0 -30 44
-24 118 17 74 41 93 45 67 18 -14 -16 -16 -24 -7 -33 14 -14 97 7 126 31 18
15 19 15 13 0 -6 -17 25 -59 43 -59 14 0 110 101 110 116 0 15 -61 8 -100 -13
-36 -18 -43 -16 -26 8 18 27 10 52 -15 44 -23 -8 -26 17 -4 35 8 7 15 16 15
21 0 19 -27 6 -62 -31z"/>
<path d="M8642 4948 c-27 -26 -39 -45 -33 -51 13 -13 36 2 65 46 43 63 30 65
-32 5z"/>
<path d="M8446 4789 c-14 -11 -26 -28 -26 -38 0 -9 -5 -22 -12 -29 -9 -9 -9
-18 0 -37 10 -22 9 -25 -12 -31 -13 -3 -46 -6 -72 -7 -54 -2 -81 -22 -61 -45
12 -15 57 -8 69 11 5 9 10 9 20 -1 18 -18 56 -15 88 8 16 11 35 17 44 14 19
-7 86 55 86 80 0 20 -5 20 -36 0 -35 -23 -39 -12 -9 24 33 39 33 56 0 48 -18
-5 -25 -2 -25 9 0 21 -23 19 -54 -6z"/>
<path d="M8375 4680 c-3 -5 -1 -10 4 -10 6 0 11 5 11 10 0 6 -2 10 -4 10 -3 0
-8 -4 -11 -10z"/>
<path d="M8578 4674 c-31 -16 -36 -32 -13 -40 14 -6 102 32 111 48 9 14 -70 8
-98 -8z"/>
<path d="M8544 4610 c-12 -5 -31 -21 -43 -36 -19 -24 -20 -29 -6 -36 22 -13
19 -32 -11 -61 -27 -28 -27 -57 1 -57 14 0 14 -3 0 -30 -9 -16 -17 -30 -18
-30 -1 -1 -20 -3 -42 -6 -44 -7 -92 -31 -99 -51 -3 -7 3 -19 14 -25 23 -15 26
-28 5 -28 -7 0 -18 -7 -23 -16 -12 -21 8 -64 30 -64 25 0 11 -35 -29 -75 -26
-26 -33 -40 -28 -55 4 -14 1 -28 -10 -40 -24 -26 -9 -43 31 -37 20 3 34 2 34
-4 0 -6 5 -7 10 -4 6 4 8 10 5 15 -3 5 19 20 49 35 63 31 78 46 82 82 4 34 6
35 94 73 79 33 113 61 103 85 -8 21 -32 18 -82 -10 -23 -14 -47 -25 -52 -25
-18 0 -9 27 17 51 21 20 25 30 20 58 -4 28 0 40 25 69 l31 35 -23 18 c-22 16
-22 18 -6 25 14 5 17 13 12 35 -5 21 -2 31 9 35 18 7 22 33 6 35 -5 1 -14 3
-20 4 -5 1 -21 3 -35 4 -16 1 -23 5 -19 15 7 19 -6 25 -32 16z"/>
<path d="M8365 4580 c-3 -5 -1 -10 4 -10 6 0 11 5 11 10 0 6 -2 10 -4 10 -3 0
-8 -4 -11 -10z"/>
<path d="M8343 4551 c-51 -9 -88 -38 -72 -57 7 -8 19 -10 37 -4 45 13 112 51
106 61 -6 10 -9 10 -71 0z"/>
<path d="M2242 4528 c-14 -19 4 -58 26 -58 32 0 44 23 26 48 -17 25 -37 28
-52 10z"/>
<path d="M8199 4506 c-2 -2 -17 -6 -34 -8 -16 -2 -39 -9 -49 -14 -20 -12 -14
-34 9 -34 25 0 85 33 85 47 0 13 -3 16 -11 9z"/>
<path d="M8449 4496 c-2 -2 -21 -6 -42 -9 -20 -3 -44 -10 -52 -17 -18 -15 -8
-40 16 -40 19 0 82 38 88 53 3 10 -4 19 -10 13z"/>
<path d="M2077 4423 c-14 -13 -7 -43 12 -53 15 -7 23 -6 35 6 20 19 20 19 0
38 -16 17 -36 21 -47 9z"/>
<path d="M2010 4368 c0 -23 17 -40 36 -36 31 6 24 42 -8 46 -18 2 -28 -1 -28
-10z"/>
<path d="M1970 4265 c0 -8 6 -15 14 -15 22 0 28 17 10 24 -22 9 -24 8 -24 -9z"/>
<path d="M8192 4243 c-19 -9 -32 -22 -30 -31 5 -25 24 -24 57 3 51 44 36 59
-27 28z"/>
<path d="M8308 4153 c7 -3 16 -2 19 1 4 3 -2 6 -13 5 -11 0 -14 -3 -6 -6z"/>
<path d="M1801 4101 c-8 -15 -4 -26 22 -55 35 -39 79 -53 98 -30 9 11 6 22
-15 54 -14 22 -32 40 -39 41 -6 0 -22 2 -34 5 -15 2 -26 -3 -32 -15z"/>
<path d="M8015 4070 c-3 -5 -1 -10 4 -10 6 0 11 5 11 10 0 6 -2 10 -4 10 -3 0
-8 -4 -11 -10z"/>
<path d="M1915 3891 c-7 -12 12 -24 25 -16 11 7 4 25 -10 25 -5 0 -11 -4 -15
-9z"/>
<path d="M1904 3789 c-16 -27 64 -51 85 -25 7 8 10 20 6 26 -8 13 -82 13 -91
-1z"/>
<path d="M2028 3679 c-43 -11 -51 -19 -37 -35 19 -23 119 -11 119 15 0 15 -53
28 -82 20z"/>
<path d="M2115 3630 c-3 -5 3 -10 14 -10 11 0 23 5 26 10 3 6 -3 10 -14 10
-11 0 -23 -4 -26 -10z"/>
<path d="M2114 3600 c-46 -18 -37 -48 16 -54 45 -4 90 11 84 29 -10 24 -66 38
-100 25z"/>
<path d="M2238 3507 c-29 -11 -37 -31 -15 -40 21 -8 81 3 95 17 32 32 -21 47
-80 23z"/>
<path d="M5767 3244 c-4 -4 -7 -14 -7 -23 0 -11 3 -12 11 -4 6 6 10 16 7 23
-2 6 -7 8 -11 4z"/>
<path d="M5902 3107 c-6 -7 -7 -18 -3 -26 9 -13 13 -9 24 22 7 20 -6 23 -21 4z"/>
<path d="M5720 3060 c-6 -11 -8 -25 -5 -30 9 -15 35 0 35 20 0 28 -17 33 -30
10z"/>
<path d="M5940 3060 c0 -5 5 -10 11 -10 5 0 7 5 4 10 -3 6 -8 10 -11 10 -2 0
-4 -4 -4 -10z"/>
<path d="M6885 2090 c-8 -12 18 -18 40 -9 11 4 16 8 10 9 -5 1 -18 3 -27 5
-10 2 -20 0 -23 -5z"/>
<path d="M7150 1970 c0 -5 4 -10 9 -10 6 0 13 5 16 10 3 6 -1 10 -9 10 -9 0
-16 -4 -16 -10z"/>
<path d="M7175 1941 c-3 -5 4 -13 16 -16 23 -8 34 -1 24 14 -8 13 -32 14 -40
2z"/>
<path d="M7250 1930 c0 -5 5 -10 11 -10 5 0 7 5 4 10 -3 6 -8 10 -11 10 -2 0
-4 -4 -4 -10z"/>
<path d="M7025 1921 c-3 -6 3 -15 14 -20 24 -14 31 -14 31 -1 0 14 -38 32 -45
21z"/>
<path d="M6869 1874 c-6 -8 -20 -14 -30 -14 -11 0 -19 -7 -19 -16 0 -11 5 -14
16 -10 9 3 20 6 25 6 6 0 8 4 4 9 -3 6 15 11 40 13 l46 3 -35 11 c-29 9 -38 8
-47 -2z"/>
<path d="M6965 1860 c-3 -4 4 -10 15 -13 11 -3 22 -2 25 3 3 4 -4 10 -15 13
-11 3 -22 2 -25 -3z"/>
<path d="M7095 1852 c-13 -13 -3 -22 25 -22 17 0 30 4 30 9 0 10 -47 21 -55
13z"/>
<path d="M6765 1700 c3 -5 8 -10 11 -10 2 0 4 5 4 10 0 6 -5 10 -11 10 -5 0
-7 -4 -4 -10z"/>
<path d="M6720 1685 c0 -17 -9 -19 -43 -6 -35 13 -41 3 -14 -25 29 -31 92 -34
82 -5 -5 15 -2 18 13 14 11 -2 23 1 27 9 5 7 5 10 0 6 -4 -4 -17 -1 -29 7 -26
19 -36 19 -36 0z"/>
<path d="M7040 1671 c0 -12 28 -22 35 -12 3 5 -2 12 -11 15 -21 8 -24 8 -24
-3z"/>
<path d="M7125 1670 c3 -5 8 -10 11 -10 2 0 4 5 4 10 0 6 -5 10 -11 10 -5 0
-7 -4 -4 -10z"/>
<path d="M6845 1640 c-3 -5 1 -10 9 -10 9 0 16 5 16 10 0 6 -4 10 -9 10 -6 0
-13 -4 -16 -10z"/>
<path d="M6997 1643 c-11 -10 13 -33 34 -33 23 0 25 25 3 34 -20 8 -29 8 -37
-1z"/>
<path d="M6725 1610 c3 -5 10 -10 16 -10 5 0 9 5 9 10 0 6 -7 10 -16 10 -8 0
-12 -4 -9 -10z"/>
<path d="M5366 1588 c9 -32 24 -49 36 -42 6 4 4 10 -6 16 -9 5 -16 18 -16 28
0 11 -5 20 -11 20 -6 0 -8 -9 -3 -22z"/>
<path d="M6885 1590 c3 -5 8 -10 11 -10 2 0 4 5 4 10 0 6 -5 10 -11 10 -5 0
-7 -4 -4 -10z"/>
<path d="M6755 1580 c-3 -5 0 -10 8 -10 10 0 13 -7 10 -20 -6 -21 -2 -23 52
-22 47 0 74 12 68 28 -4 11 -19 14 -53 12 -28 -2 -53 2 -63 10 -10 9 -17 10
-22 2z"/>
<path d="M5235 1560 c-3 -5 -1 -10 4 -10 6 0 11 5 11 10 0 6 -2 10 -4 10 -3 0
-8 -4 -11 -10z"/>
<path d="M7070 1560 c-12 -8 -12 -10 2 -15 26 -10 43 -2 26 12 -8 7 -19 8 -28
3z"/>
<path d="M5259 1528 c-5 -17 -4 -48 3 -48 4 0 8 11 8 25 0 20 -7 34 -11 23z"/>
<path d="M5399 1497 c-27 -13 -28 -29 -1 -59 21 -24 36 -11 17 15 -19 27 -19
37 -1 37 8 0 18 5 21 10 8 13 -3 12 -36 -3z"/>
<path d="M6880 1480 c0 -5 5 -10 11 -10 5 0 7 5 4 10 -3 6 -8 10 -11 10 -2 0
-4 -4 -4 -10z"/>
<path d="M6396 1451 c-3 -5 1 -11 9 -15 8 -3 15 -1 15 4 0 13 -18 22 -24 11z"/>
<path d="M6520 1446 c0 -8 9 -18 20 -21 11 -4 27 -19 35 -35 11 -21 20 -27 35
-23 27 7 25 16 -14 57 -34 36 -76 48 -76 22z"/>
<path d="M6445 1410 c3 -5 8 -10 11 -10 2 0 4 5 4 10 0 6 -5 10 -11 10 -5 0
-7 -4 -4 -10z"/>
<path d="M5430 1379 c0 -16 7 -30 16 -33 25 -9 25 -3 4 29 l-20 30 0 -26z"/>
<path d="M5670 1384 c0 -8 5 -12 10 -9 6 3 10 10 10 16 0 5 -4 9 -10 9 -5 0
-10 -7 -10 -16z"/>
<path d="M6300 1391 c0 -5 5 -13 10 -16 6 -3 10 -2 10 4 0 5 -4 13 -10 16 -5
3 -10 2 -10 -4z"/>
<path d="M4833 1383 c-15 -5 -18 -33 -4 -33 13 0 33 28 24 33 -4 2 -14 2 -20
0z"/>
<path d="M5360 1371 c0 -6 5 -13 10 -16 6 -3 10 1 10 9 0 9 -4 16 -10 16 -5 0
-10 -4 -10 -9z"/>
<path d="M6846 1372 c-9 -8 14 -32 30 -32 21 0 17 27 -5 33 -11 3 -22 2 -25
-1z"/>
<path d="M5725 1351 c-3 -5 -1 -12 4 -15 5 -3 11 1 15 9 6 16 -9 21 -19 6z"/>
<path d="M6206 1351 c-3 -5 1 -14 9 -21 12 -10 15 -10 15 3 0 19 -16 31 -24
18z"/>
<path d="M4935 1340 c-3 -5 -1 -10 4 -10 6 0 11 5 11 10 0 6 -2 10 -4 10 -3 0
-8 -4 -11 -10z"/>
<path d="M5070 1340 c0 -5 5 -10 10 -10 6 0 10 5 10 10 0 6 -4 10 -10 10 -5 0
-10 -4 -10 -10z"/>
<path d="M6410 1340 c0 -5 7 -10 16 -10 8 0 12 5 9 10 -3 6 -10 10 -16 10 -5
0 -9 -4 -9 -10z"/>
<path d="M5380 1329 c0 -5 5 -7 10 -4 6 3 10 8 10 11 0 2 -4 4 -10 4 -5 0 -10
-5 -10 -11z"/>
<path d="M4772 1316 c1 -10 8 -17 13 -17 15 1 12 24 -3 29 -9 3 -13 -2 -10
-12z"/>
<path d="M5820 1314 c0 -9 7 -14 17 -12 25 5 28 28 4 28 -12 0 -21 -6 -21 -16z"/>
<path d="M6370 1320 c0 -5 5 -10 10 -10 6 0 10 5 10 10 0 6 -4 10 -10 10 -5 0
-10 -4 -10 -10z"/>
<path d="M5225 1290 c-3 -5 -1 -10 4 -10 6 0 11 5 11 10 0 6 -2 10 -4 10 -3 0
-8 -4 -11 -10z"/>
<path d="M5400 1290 c0 -5 7 -10 15 -10 8 0 15 5 15 10 0 6 -7 10 -15 10 -8 0
-15 -4 -15 -10z"/>
<path d="M6486 1291 c-3 -5 1 -14 9 -21 12 -10 15 -10 15 3 0 19 -16 31 -24
18z"/>
<path d="M5590 1280 c0 -5 5 -10 10 -10 6 0 10 5 10 10 0 6 -4 10 -10 10 -5 0
-10 -4 -10 -10z"/>
<path d="M4740 1255 c0 -9 6 -12 15 -9 8 4 15 10 15 15 0 5 -7 9 -15 9 -8 0
-15 -7 -15 -15z"/>
<path d="M5480 1256 c0 -9 5 -16 10 -16 6 0 10 4 10 9 0 6 -4 13 -10 16 -5 3
-10 -1 -10 -9z"/>
<path d="M6146 1255 c-7 -18 31 -55 49 -48 22 8 -5 63 -30 63 -7 0 -15 -7 -19
-15z"/>
<path d="M4795 1210 c-21 -22 -36 -42 -33 -45 6 -7 78 65 78 78 0 12 -4 9 -45
-33z"/>
<path d="M5241 1156 c-7 -8 -8 -17 -3 -20 6 -3 15 1 21 8 7 8 8 17 3 20 -6 3
-15 -1 -21 -8z"/>
<path d="M4917 1147 c-11 -29 -9 -43 4 -30 6 6 9 19 7 29 -3 18 -4 18 -11 1z"/>
<path d="M4586 981 c-4 -7 -5 -15 -2 -18 9 -9 19 4 14 18 -4 11 -6 11 -12 0z"/>
<path d="M4976 921 c-4 -7 -5 -15 -2 -18 9 -9 19 4 14 18 -4 11 -6 11 -12 0z"/>
<path d="M5265 870 c-3 -5 1 -10 10 -10 9 0 13 5 10 10 -3 6 -8 10 -10 10 -2
0 -7 -4 -10 -10z"/>
<path d="M4995 770 c3 -5 8 -10 11 -10 2 0 4 5 4 10 0 6 -5 10 -11 10 -5 0 -7
-4 -4 -10z"/>
<path d="M5502 670 c-11 -11 -28 -17 -36 -14 -14 5 -41 -28 -30 -38 8 -8 85
34 91 49 9 23 -2 24 -25 3z"/>
<path d="M5555 579 c-4 -6 -5 -13 -2 -16 7 -7 27 6 27 18 0 12 -17 12 -25 -2z"/>
</g>
</svg>
